<?xml version="1.0" standalone="no"?>
<!DOCTYPE svg PUBLIC "-//W3C//DTD SVG 1.1//EN" "http://www.w3.org/Graphics/SVG/1.1/DTD/svg11.dtd" >
<svg xmlns="http://www.w3.org/2000/svg">
<metadata>
This is a custom SVG webfont generated by Font Squirrel.
Copyright   : Tenacity Bold  Copyright 2001 Joe Gillespie  vW13
</metadata>
<defs>
<font id="TenacityBold" horiz-adv-x="1638" >
<font-face units-per-em="2048" ascent="1638" descent="-410" />
<missing-glyph horiz-adv-x="1024" />
<glyph unicode=" "  horiz-adv-x="1024" />
<glyph unicode="&#x09;" horiz-adv-x="1024" />
<glyph unicode="&#xa0;" horiz-adv-x="1024" />
<glyph unicode="!" horiz-adv-x="819" d="M205 0v205h409v-205h-409zM205 410v1024h409v-1024h-409z" />
<glyph unicode="&#x22;" horiz-adv-x="1433" d="M205 1229v614h409v-614h-409zM819 1229v614h410v-614h-410z" />
<glyph unicode="#" horiz-adv-x="2252" d="M205 410v204h409v205h-409v205h409v410h410v-410h205v410h409v-410h410v-205h-410v-205h410v-204h-410v-410h-409v410h-205v-410h-410v410h-409zM1024 614h205v205h-205v-205z" />
<glyph unicode="$" horiz-adv-x="2048" d="M205 0v205h614v409h-409v205h-205v410h205v205h409v204h410v-204h614v-205h-614v-410h409v-205h205v-409h-205v-205h-409v-205h-410v205h-614zM614 819h205v410h-205v-410zM1229 205h205v409h-205v-409z" />
<glyph unicode="%" horiz-adv-x="2662" d="M205 819v410h205v205h614v-205h205v-205h205v205h204v205h410v-205h-205v-205h-205v-205h615v-205h205v-409h-205v-205h-615v205h-204v205h-205v-205h-205v-205h-410v205h205v205h205v204h-614v205h-205zM614 819h205v410h-205v-410zM1843 205h205v409h-205v-409z" />
<glyph unicode="&#x26;" horiz-adv-x="2048" d="M205 205v409h205v205h-205v410h205v205h614v-205h205v-410h-205v-205h205v-204h205v409h409v-409h-205v-205h205v-205h-409v205h-205v-205h-819v205h-205zM614 205h410v205h-205v204h-205v-409zM614 819h205v410h-205v-410z" />
<glyph unicode="'" horiz-adv-x="819" d="M205 1024v614h409v-614h-409z" />
<glyph unicode="(" horiz-adv-x="1228" d="M205 0v1434h205v204h204v205h410v-205h-205v-204h-205v-1434h205v-205h205v-205h-410v205h-204v205h-205z" />
<glyph unicode=")" horiz-adv-x="1228" d="M205 -205h205v205h204v1434h-204v204h-205v205h409v-205h205v-204h205v-1434h-205v-205h-205v-205h-409v205z" />
<glyph unicode="*" horiz-adv-x="2048" d="M205 819v205h205v205h-205v205h409v-205h205v409h410v-409h205v205h409v-205h-205v-205h205v-205h-409v205h-205v-410h-410v410h-205v-205h-409z" />
<glyph unicode="+" horiz-adv-x="2048" d="M205 614v205h614v615h410v-615h614v-205h-614v-614h-410v614h-614z" />
<glyph unicode="," horiz-adv-x="1024" d="M205 0h205v410h409v-410h-205v-205h-409v205z" />
<glyph unicode="-" d="M205 614v205h1229v-205h-1229z" />
<glyph unicode="." horiz-adv-x="819" d="M205 0v410h409v-410h-409z" />
<glyph unicode="/" horiz-adv-x="1433" d="M205 -205v410h205v614h204v615h205v409h410v-409h-205v-615h-205v-614h-205v-410h-409z" />
<glyph unicode="0" d="M205 205v1024h205v205h819v-205h205v-1024h-205v-205h-819v205h-205zM614 205h410v1024h-410v-1024z" />
<glyph unicode="1" horiz-adv-x="1228" d="M205 1024v205h205v205h409v-1434h-409v1024h-205z" />
<glyph unicode="2" d="M205 0v205h205v205h204v204h205v205h205v410h-410v-205h-409v205h205v205h819v-205h205v-410h-205v-205h-205v-204h-205v-205h615v-205h-1229z" />
<glyph unicode="3" d="M205 205v205h409v-205h410v409h-410v205h410v410h-410v-205h-409v205h205v205h819v-205h205v-410h-205v-205h205v-409h-205v-205h-819v205h-205z" />
<glyph unicode="4" d="M205 410v409h205v205h204v205h205v205h410v-820h205v-204h-205v-410h-410v410h-614zM614 614h205v205h-205v-205z" />
<glyph unicode="5" d="M205 205v205h409v-205h410v614h-819v615h1229v-205h-820v-205h615v-205h205v-614h-205v-205h-819v205h-205z" />
<glyph unicode="6" d="M205 205v1024h205v205h819v-205h-615v-205h615v-205h205v-614h-205v-205h-819v205h-205zM614 205h410v614h-410v-614z" />
<glyph unicode="7" d="M205 1229v205h1229v-410h-205v-410h-205v-409h-205v-205h-409v205h204v409h205v410h205v205h-819z" />
<glyph unicode="8" d="M205 205v409h205v205h-205v410h205v205h819v-205h205v-410h-205v-205h205v-409h-205v-205h-819v205h-205zM614 205h410v409h-410v-409zM614 819h410v410h-410v-410z" />
<glyph unicode="9" d="M205 614v615h205v205h819v-205h205v-1024h-205v-205h-819v205h614v205h-614v204h-205zM614 614h410v615h-410v-615z" />
<glyph unicode=":" horiz-adv-x="819" d="M205 0v410h409v-410h-409zM205 614v410h409v-410h-409z" />
<glyph unicode=";" horiz-adv-x="1024" d="M205 0h205v410h409v-410h-205v-205h-409v205zM410 614v410h409v-410h-409z" />
<glyph unicode="&#x3c;" horiz-adv-x="1843" d="M205 614v205h409v205h410v205h614v-205h-409v-205h-410v-205h410v-204h409v-205h-614v205h-410v204h-409z" />
<glyph unicode="=" horiz-adv-x="1843" d="M205 410v204h1433v-204h-1433zM205 819v205h1433v-205h-1433z" />
<glyph unicode="&#x3e;" horiz-adv-x="1843" d="M205 205v205h409v204h410v205h-410v205h-409v205h614v-205h410v-205h409v-205h-409v-204h-410v-205h-614z" />
<glyph unicode="?" horiz-adv-x="1433" d="M205 1229v205h819v-205h205v-410h-205v-205h-205v-204h-409v204h204v205h205v410h-614zM410 0v205h409v-205h-409z" />
<glyph unicode="@" horiz-adv-x="2662" d="M205 0v1024h205v205h204v205h1434v-205h205v-205h205v-819h-205v-205h-1229v205h-205v614h205v205h819v205h-1024v-205h-205v-1024h205v-205h1229v-205h-1434v205h-204v205h-205zM1229 205h205v614h-205v-614zM1843 205h205v819h-190l-15 -14v-805z" />
<glyph unicode="A" horiz-adv-x="1843" d="M205 0v1229h205v205h1020v-205h208v-1229h-409v614h-619v-614h-405zM610 823h619v406h-619v-406z" />
<glyph unicode="B" horiz-adv-x="1843" d="M205 0v1434h1229v-205h204v-410h-204v-205h204v-409h-204v-205h-1229zM614 205h615v409h-615v-409zM614 823h615v406h-615v-406z" />
<glyph unicode="C" horiz-adv-x="1843" d="M205 205v1024h205v205h1024v-205h204v-205h-409v205h-615v-1024h615v205h409v-205h-204v-205h-1024v205h-205z" />
<glyph unicode="D" horiz-adv-x="1843" d="M205 0v1434h1229v-205h204v-1024h-204v-205h-1229zM614 205h615v1024h-615v-1024z" />
<glyph unicode="E" d="M205 0v1434h1229v-205h-820v-410h615v-205h-615v-409h820v-205h-1229z" />
<glyph unicode="F" d="M205 0v1434h1229v-205h-820v-410h615v-205h-615v-614h-409z" />
<glyph unicode="G" horiz-adv-x="1843" d="M205 205v1024h205v205h1024v-205h204v-205h-409v205h-615v-1024h615v409h-410v205h819v-614h-204v-205h-1024v205h-205z" />
<glyph unicode="H" horiz-adv-x="1843" d="M205 0v1434h409v-615h615v615h409v-1434h-409v614h-615v-614h-409z" />
<glyph unicode="I" horiz-adv-x="819" d="M205 0v1434h409v-1434h-409z" />
<glyph unicode="J" horiz-adv-x="1433" d="M205 0v205h614v1229h410v-1229h-205v-205h-819z" />
<glyph unicode="K" horiz-adv-x="1843" d="M205 0v1434h409v-615h205v205h205v205h205v205h409v-205h-204v-205h-205v-205h-205v-205h205v-204h205v-205h204v-205h-409v205h-205v205h-205v204h-205v-614h-409z" />
<glyph unicode="L" d="M205 0v1434h409v-1229h820v-205h-1229z" />
<glyph unicode="M" horiz-adv-x="2252" d="M205 0v1434h409v-205h205v-205h205v-205h205v205h205v205h204v205h410v-1434h-410v614h-204v-204h-205v-205h-205v205h-205v204h-205v-614h-409z" />
<glyph unicode="N" horiz-adv-x="1843" d="M205 0v1434h409v-205h205v-205h205v-205h205v615h409v-1434h-409v410h-205v204h-205v205h-205v-819h-409z" />
<glyph unicode="O" horiz-adv-x="1843" d="M205 205v1024h205v205h1024v-205h204v-1024h-204v-205h-1024v205h-205zM614 205h615v1024h-615v-1024z" />
<glyph unicode="P" horiz-adv-x="1843" d="M205 0v1434h1229v-205h204v-410h-204v-205h-820v-614h-409zM614 819h615v410h-615v-410z" />
<glyph unicode="Q" horiz-adv-x="1843" d="M205 205v1024h205v205h1024v-205h204v-1024h-204v-410h409v-205h-614v205h-205v205h-614v205h-205zM614 205h615v1024h-615v-1024z" />
<glyph unicode="R" horiz-adv-x="1843" d="M205 0v1434h1229v-205h204v-410h-204v-205h204v-614h-409v614h-615v-614h-409zM614 819h615v410h-615v-410z" />
<glyph unicode="S" horiz-adv-x="1843" d="M205 205v205h409v-205h615v409h-819v205h-205v410h205v205h1024v-205h204v-205h-409v205h-615v-410h820v-205h204v-409h-204v-205h-1024v205h-205z" />
<glyph unicode="T" d="M0 1229v205h1638v-205h-614v-1229h-410v1229h-614z" />
<glyph unicode="U" horiz-adv-x="1843" d="M205 205v1229h409v-1229h615v1229h409v-1229h-204v-205h-1024v205h-205z" />
<glyph unicode="V" horiz-adv-x="2048" d="M205 819v615h409v-615h205v-409h410v409h205v615h409v-615h-205v-409h-204v-205h-205v-205h-410v205h-205v205h-204v409h-205z" />
<glyph unicode="W" horiz-adv-x="2457" d="M207 819v615h409l-2 -615h205v-205h205l2 820h410l-2 -820h204v205h205v-205l2 820h410v-615h-205v-409h-205v-410h-409v410h-410v-410h-410v410h-204v409h-205z" />
<glyph unicode="X" horiz-adv-x="2048" d="M205 0v205h205v205h204v204h205v205h-205v205h-204v205h-205v205h409v-205h205v-205h410v205h205v205h409v-205h-205v-205h-204v-205h-205v-205h205v-204h204v-205h205v-205h-409v205h-205v205h-410v-205h-205v-205h-409z" />
<glyph unicode="Y" horiz-adv-x="2048" d="M205 1229v205h409v-205h205v-205h410v205h205v205h409v-205h-205v-205h-204v-205h-205v-819h-410v819h-205v205h-204v205h-205z" />
<glyph unicode="Z" horiz-adv-x="1843" d="M205 0v410h205v204h204v205h205v205h205v205h-819v205h1433v-205h-204v-205h-205v-205h-205v-205h-205v-204h-205v-205h1024v-205h-1433z" />
<glyph unicode="[" horiz-adv-x="1228" d="M205 -205v2048h819v-205h-410v-1638h410v-205h-819z" />
<glyph unicode="\" horiz-adv-x="1433" d="M205 1434v409h409v-409h205v-615h205v-614h205v-410h-410v410h-205v614h-204v615h-205z" />
<glyph unicode="]" horiz-adv-x="1228" d="M205 0h409v1638h-409v205h819v-2048h-819v205z" />
<glyph unicode="^" horiz-adv-x="1843" d="M205 1024v205h205v205h204v204h615v-204h205v-205h204v-205h-409v205h-205v205h-205v-205h-205v-205h-409z" />
<glyph unicode="_" horiz-adv-x="1843" d="M205 0h1433v-205h-1433v205z" />
<glyph unicode="`" horiz-adv-x="1024" d="M205 1638v205h409v-205h205v-204h-409v204h-205z" />
<glyph unicode="a" d="M205 205v205h205v204h614v205h-614v205h819v-205h205v-819h-1024v205h-205zM614 205h410v205h-410v-205z" />
<glyph unicode="b" d="M205 0v1434h409v-410h615v-205h205v-614h-205v-205h-1024zM614 205h410v614h-410v-614z" />
<glyph unicode="c" horiz-adv-x="1433" d="M205 205v614h205v205h819v-205h-615v-614h615v-205h-819v205h-205z" />
<glyph unicode="d" d="M205 205v614h205v205h614v410h410v-1434h-1024v205h-205zM614 205h410v614h-410v-614z" />
<glyph unicode="e" d="M205 205v614h205v205h819v-205h205v-409h-820v-205h820v-205h-1024v205h-205zM614 614h410v205h-410v-205z" />
<glyph unicode="f" horiz-adv-x="1228" d="M205 819v205h205v205h204v205h615v-205h-410v-205h205v-205h-205v-819h-409v819h-205z" />
<glyph unicode="g" d="M205 205v614h205v205h1024v-1229h-205v-205h-819v205h614v205h-614v205h-205zM614 205h410v614h-410v-614z" />
<glyph unicode="h" d="M205 0v1434h409v-410h615v-205h205v-819h-410v819h-410v-819h-409z" />
<glyph unicode="i" horiz-adv-x="819" d="M205 0v1024h409v-1024h-409zM205 1229v205h409v-205h-409z" />
<glyph unicode="j" horiz-adv-x="1228" d="M205 -205h409v1229h410v-1229h-205v-205h-614v205zM614 1229v205h410v-205h-410z" />
<glyph unicode="k" d="M205 0v1434h409v-820h205v205h205v205h410v-205h-205v-205h-205v-204h205v-205h205v-205h-410v205h-205v205h-205v-410h-409z" />
<glyph unicode="l" horiz-adv-x="819" d="M205 0v1434h409v-1434h-409z" />
<glyph unicode="m" horiz-adv-x="2457" d="M205 0v1024h819v-205h205v205h819v-205h205v-819h-410v819h-409v-819h-410v819h-410v-819h-409z" />
<glyph unicode="n" d="M205 0v1024h1024v-205h205v-819h-410v819h-410v-819h-409z" />
<glyph unicode="o" d="M205 205v614h205v205h819v-205h205v-614h-205v-205h-819v205h-205zM614 205h410v614h-410v-614z" />
<glyph unicode="p" d="M205 -410v1434h1024v-205h205v-614h-205v-205h-615v-410h-409zM614 205h410v614h-410v-614z" />
<glyph unicode="q" d="M205 205v614h205v205h1024v-1434h-410v410h-614v205h-205zM614 205h410v614h-410v-614z" />
<glyph unicode="r" horiz-adv-x="1433" d="M205 0v1024h409v-205h205v205h410v-205h-410v-205h-205v-614h-409z" />
<glyph unicode="s" d="M205 0v205h614v205h-409v614h1024v-205h-615v-205h410v-614h-1024zM205 614v205h205v-205h-205zM1229 205v205h205v-205h-205z" />
<glyph unicode="t" horiz-adv-x="1433" d="M205 819v205h205v205h409v-205h410v-205h-410v-614h410v-205h-615v205h-204v614h-205z" />
<glyph unicode="u" d="M205 205v819h409v-819h410v819h410v-1024h-1024v205h-205z" />
<glyph unicode="v" d="M205 410v614h409v-614h410v614h410v-614h-205v-205h-205v-205h-410v205h-204v205h-205z" />
<glyph unicode="w" horiz-adv-x="2457" d="M205 410v614h409v-614h410v614h410v-614h409v614h410v-614h-205v-205h-205v-205h-409v205h-410v-205h-410v205h-204v205h-205z" />
<glyph unicode="x" d="M205 0v205h205v205h204v204h-204v205h-205v205h409v-205h410v205h410v-205h-205v-205h-205v-204h205v-205h205v-205h-410v205h-410v-205h-409z" />
<glyph unicode="y" d="M205 205v819h409v-819h410v819h410v-1229h-205v-205h-819v205h614v205h-614v205h-205z" />
<glyph unicode="z" horiz-adv-x="1433" d="M205 0v410h205v204h204v205h-409v205h1024v-205h-205v-205h-205v-204h-205v-205h615v-205h-1024z" />
<glyph unicode="{" d="M205 614v205h409v819h205v205h615v-205h-410v-819h-205v-205h205v-819h410v-205h-615v205h-205v819h-409z" />
<glyph unicode="|" horiz-adv-x="819" d="M205 -205v2048h409v-2048h-409z" />
<glyph unicode="}" d="M205 -205h409v819h205v205h-205v819h-409v205h614v-205h205v-819h410v-205h-410v-819h-205v-205h-614v205z" />
<glyph unicode="~" horiz-adv-x="1843" d="M205 614v410h205v205h409v-205h410v205h409v-410h-204v-205h-410v205h-410v-205h-409z" />
<glyph unicode="&#xa1;" horiz-adv-x="819" d="M205 0v1024h409v-1024h-409zM205 1229v205h409v-205h-409z" />
<glyph unicode="&#xa2;" d="M205 205v614h205v205h409v205h410v-205h205v-205h-205v-614h205v-205h-205v-205h-410v205h-409v205h-205zM614 205h205v614h-205v-614z" />
<glyph unicode="&#xa3;" d="M205 0v205h205v409h-205v205h205v410h204v205h820v-205h-615v-410h410v-205h-410v-409h615v-205h-1229z" />
<glyph unicode="&#xa4;" horiz-adv-x="2048" d="M205 410v204h205v205h-205v205h205v205h204v205h1024v-205h205v-205h-395l-14 -14v-191h-615v-205h615v-190l14 -14h395v-205h-205v-205h-1024v205h-204v205h-205zM819 205h615v205h-615v-205zM819 1024h615v205h-615v-205z" />
<glyph unicode="&#xa5;" horiz-adv-x="2048" d="M205 1434v204h409v-204h205v-205h410v205h205v204h409v-204h-205v-205h-204v-205h204v-205h-409v-205h409v-204h-409v-410h-410v410h-409v204h409v205h-409v205h204v205h-204v205h-205z" />
<glyph unicode="&#xa6;" horiz-adv-x="819" d="M205 -205v819h409v-819h-409zM205 1024v819h409v-819h-409z" />
<glyph unicode="&#xa7;" horiz-adv-x="1433" d="M205 0h614v205h-409v205h-205v409h205v205h-205v205h205v205h819v-205h-615v-205h410v-205h205v-409h-205v-205h205v-205h-205v-205h-819v205zM614 410h205v409h-205v-409z" />
<glyph unicode="&#xa8;" horiz-adv-x="1433" d="M205 1434v204h409v-204h-409zM819 1434v204h410v-204h-410z" />
<glyph unicode="&#xa9;" horiz-adv-x="2662" d="M205 410v819h205v205h409v204h1024v-204h410v-205h205v-819h-205v-205h-410v-205h-1024v205h-409v205h-205zM614 410h410v204h-205v410h205v190l-14 15h-396v-819zM1024 205h614v205h-600l-14 -15v-190zM1024 1229h614v205h-614v-205zM1229 614h614v-204h205v819h-205 v-205h-614v-410z" />
<glyph unicode="&#xaa;" d="M205 819v205h205v205h614v205h-614v204h819v-204h205v-820h-1024v205h-205zM614 819h410v205h-410v-205z" />
<glyph unicode="&#xab;" horiz-adv-x="1843" d="M205 614v205h205v205h204v205h410v-205h205v205h409v-205h-204v-205h-205v-205h205v-204h204v-205h-409v205h-205v-205h-410v205h-204v204h-205zM614 614h205v191l-14 14h-191v-205zM819 410h191l14 14v190h-190l-15 -14v-190zM819 819h205v191l-14 14h-191v-205z" />
<glyph unicode="&#xac;" horiz-adv-x="1843" d="M205 614v205h1433v-819h-409v614h-1024z" />
<glyph unicode="&#xad;" d="M205 614v205h1229v-205h-1229z" />
<glyph unicode="&#x2212;" d="M205 614v205h1229v-205h-1229z" />
<glyph unicode="&#xae;" horiz-adv-x="2662" d="M205 410v819h205v205h409v204h1024v-204h410v-205h205v-819h-205v-205h-410v-205h-1024v205h-409v205h-205zM614 410h205v819h-205v-819zM1024 205h614v205h-204v204h-205v-204h-205v-205zM1024 1229h614v-205h205v-205h-205v-205h205v-204h205v819h-410v205h-614v-205z M1229 819h205v205h-205v-205z" />
<glyph unicode="&#xaf;" horiz-adv-x="1433" d="M205 1434v204h1024v-204h-1024z" />
<glyph unicode="&#x2c9;" horiz-adv-x="1433" d="M205 1434v204h1024v-204h-1024z" />
<glyph unicode="&#xb0;" horiz-adv-x="1433" d="M205 819v410h205v205h614v-205h205v-410h-205v-205h-614v205h-205zM614 819h205v410h-205v-410z" />
<glyph unicode="&#xb1;" horiz-adv-x="2048" d="M205 0v205h614v614h-614v205h614v614h410v-614h614v-205h-614v-614h614v-205h-1638z" />
<glyph unicode="&#xb2;" horiz-adv-x="1433" d="M205 1024v205h205v205h204v204h-409v205h205v205h614v-205h205v-205h-205v-204h-205v-205h410v-205h-1024zM614 1653l15 -15h190v205h-205v-190z" />
<glyph unicode="&#xb3;" horiz-adv-x="1433" d="M205 1229v205h409v204h-409v205h205v205h614v-205h205v-205h-205v-204h205v-205h-205v-205h-614v205h-205zM614 1229h205v205h-190l-15 -15v-190zM614 1653l15 -15h190v205h-205v-190z" />
<glyph unicode="&#xb4;" horiz-adv-x="1024" d="M205 1434v204h205v205h409v-205h-205v-204h-409z" />
<glyph unicode="&#xb5;" horiz-adv-x="1843" d="M205 -205v1434h409v-819h410v819h410v-819h204v-205h-1024v-410h-409z" />
<glyph unicode="&#x3bc;" horiz-adv-x="1843" d="M205 -205v1434h409v-819h410v819h410v-819h204v-205h-1024v-410h-409z" />
<glyph unicode="&#xb6;" horiz-adv-x="1843" d="M205 614v615h205v205h1228v-1844h-409v820h-205v-820h-410v820h-204v204h-205zM1024 614h205v615h-205v-615z" />
<glyph unicode="&#xb7;" horiz-adv-x="819" d="M205 410v409h409v-409h-409z" />
<glyph unicode="&#x2219;" horiz-adv-x="819" d="M205 410v409h409v-409h-409z" />
<glyph unicode="&#xb8;" horiz-adv-x="1228" d="M205 -205h409v205h410v-205h-205v-205h-614v205z" />
<glyph unicode="&#xb9;" horiz-adv-x="1024" d="M205 1638v205h205v205h409v-1229h-409v819h-205z" />
<glyph unicode="&#xba;" d="M205 819v615h205v204h819v-204h205v-615h-205v-205h-819v205h-205zM614 819h410v615h-410v-615z" />
<glyph unicode="&#xbb;" horiz-adv-x="1843" d="M205 205v205h205v204h204v205h-204v205h-205v205h409v-205h205v205h410v-205h205v-205h204v-205h-204v-204h-205v-205h-410v205h-205v-205h-409zM819 424l15 -14h190v190l-14 14h-191v-190zM819 819h191l14 15v190h-190l-15 -14v-191zM1024 614h205v205h-205v-205z" />
<glyph unicode="&#xbc;" horiz-adv-x="4505" d="M205 1024v205h205v205h409v-1434h-409v1024h-205zM1434 0v205h204v409h205v205h205v410h205v205h409v-205h-204v-410h-205v-205h-205v-409h-205v-205h-409zM3072 410v409h205v205h205v205h204v205h410v-820h205v-204h-205v-410h-410v410h-614zM3482 614h204v205h-204 v-205z" />
<glyph unicode="&#xbd;" d="M-164 258v14l14 -14h-14zM-160 307v15h15zM-106 260l14 14v-14h-14zM-100 322h14v-15z" />
<glyph unicode="&#xbe;" horiz-adv-x="4915" d="M205 205v205h409v-205h410v409h-410v205h410v410h-410v-205h-409v205h205v205h819v-205h205v-410h-205v-205h205v-409h-205v-205h-819v205h-205zM1843 0v205h205v409h205v205h205v410h204v205h410v-205h-205v-410h-205v-205h-204v-409h-205v-205h-410zM3482 410v409h204 v205h205v205h205v205h410v-820h204v-204h-204v-410h-410v410h-614zM3891 614h205v205h-205v-205z" />
<glyph unicode="&#xbf;" horiz-adv-x="1433" d="M205 205v409h205v205h204v205h410v-205h-205v-205h-205v-409h615v-205h-819v205h-205zM614 1229v205h410v-205h-410z" />
<glyph unicode="&#xc0;" horiz-adv-x="1843" d="M205 0v1229h205v205h1024v-205h208v-1229h-413v614h-615v-614h-409zM614 823h615v406h-615v-406zM614 1843v205h410v-205h205v-205h-410v205h-205z" />
<glyph unicode="&#xc1;" horiz-adv-x="1843" d="M205 0v1229h205v205h1024v-205h208v-1229h-413v614h-615v-614h-409zM614 823h615v406h-615v-406zM614 1638v205h205v205h410v-205h-205v-205h-410z" />
<glyph unicode="&#xc2;" horiz-adv-x="1843" d="M205 0v1229h205v205h1024v-205h208v-1229h-413v614h-615v-614h-409zM410 1638v205h204v205h615v-205h205v-205h-410v205h-205v-205h-409zM614 823h615v406h-615v-406z" />
<glyph unicode="&#xc3;" horiz-adv-x="1843" d="M205 0v1229h205v205h1024v-205h208v-1229h-413v614h-615v-614h-409zM410 1638v205h204v205h410v-205h205v205h409v-205h-204v-205h-410v205h-205v-205h-409zM614 823h615v406h-615v-406z" />
<glyph unicode="&#xc4;" horiz-adv-x="1843" d="M205 0v1229h205v205h1024v-205h208v-1229h-413v614h-615v-614h-409zM410 1638v205h409v-205h-409zM614 823h615v406h-615v-406zM1024 1638v205h410v-205h-410z" />
<glyph unicode="&#xc5;" horiz-adv-x="1843" d="M205 0v1229h205v205h1024v-205h208v-1229h-413v614h-615v-614h-409zM410 1638v205h204v205h615v-205h205v-205h-205v-204h-615v204h-204zM614 823h615v406h-615v-406zM819 1638h205v205h-205v-205z" />
<glyph unicode="&#xc6;" horiz-adv-x="2252" d="M205 0v1229h205v205h1638v-205h-614v-410h614v-205h-614v-409h614v-205h-1024v614h-410v-614h-409zM614 819h410v410h-410v-410z" />
<glyph unicode="&#xc7;" horiz-adv-x="1843" d="M205 205v1024h205v205h1024v-205h204v-205h-409v205h-615v-1024h615v205h409v-205h-204v-205h-205v-205h-205v-205h-410v205h205v205h-409v205h-205z" />
<glyph unicode="&#xc8;" d="M205 0v1434h1229v-205h-820v-410h615v-205h-615v-409h820v-205h-1229zM410 1843v205h409v-205h205v-205h-410v205h-204z" />
<glyph unicode="&#xc9;" d="M205 0v1434h1229v-205h-820v-410h615v-205h-615v-409h820v-205h-1229zM614 1638v205h205v205h410v-205h-205v-205h-410z" />
<glyph unicode="&#xca;" d="M205 0v1434h1229v-205h-820v-410h615v-205h-615v-409h820v-205h-1229zM410 1638v205h204v205h615v-205h205v-205h-410v205h-205v-205h-409z" />
<glyph unicode="&#xcb;" d="M205 0v1434h1229v-205h-820v-410h615v-205h-615v-409h820v-205h-1229zM410 1638v205h409v-205h-409zM1024 1638v205h410v-205h-410z" />
<glyph unicode="&#xcc;" horiz-adv-x="819" d="M0 1843v205h410v-205h204v-205h-409v205h-205zM205 0v1434h409v-1434h-409z" />
<glyph unicode="&#xcd;" horiz-adv-x="819" d="M205 0v1434h409v-1434h-409zM205 1638v205h205v205h409v-205h-205v-205h-409z" />
<glyph unicode="&#xce;" horiz-adv-x="1228" d="M0 1638v205h205v205h819v-205h205v-205h-410v205h-409v-205h-410zM410 0v1434h409v-1434h-409z" />
<glyph unicode="&#xcf;" horiz-adv-x="1228" d="M0 1638v205h410v-205h-410zM410 0v1434h409v-1434h-409zM819 1638v205h410v-205h-410z" />
<glyph unicode="&#xd0;" horiz-adv-x="2048" d="M205 614v205h205v615h1228v-205h205v-1024h-205v-205h-1228v614h-205zM819 205h615v1024h-615v-410h205v-205h-205v-409z" />
<glyph unicode="&#xd1;" horiz-adv-x="1843" d="M205 0v1434h409v-205h205v-205h205v-205h205v615h409v-1434h-409v410h-205v204h-205v205h-205v-819h-409zM205 1638v205h205v205h614v-205h205v205h409v-205h-204v-205h-615v205h-205v-205h-409z" />
<glyph unicode="&#xd2;" horiz-adv-x="1843" d="M205 205v1024h205v205h1024v-205h204v-1024h-204v-205h-1024v205h-205zM614 205h615v1024h-615v-1024zM614 1843v205h410v-205h205v-205h-410v205h-205z" />
<glyph unicode="&#xd3;" horiz-adv-x="1843" d="M205 205v1024h205v205h1024v-205h204v-1024h-204v-205h-1024v205h-205zM614 205h615v1024h-615v-1024zM614 1638v205h205v205h410v-205h-205v-205h-410z" />
<glyph unicode="&#xd4;" horiz-adv-x="1843" d="M205 205v1024h205v205h1024v-205h204v-1024h-204v-205h-1024v205h-205zM410 1638v205h204v205h615v-205h205v-205h-410v205h-205v-205h-409zM614 205h615v1024h-615v-1024z" />
<glyph unicode="&#xd5;" horiz-adv-x="1843" d="M205 205v1024h205v205h1024v-205h204v-1024h-204v-205h-1024v205h-205zM410 1638v205h204v205h410v-205h205v205h409v-205h-204v-205h-410v205h-205v-205h-409zM614 205h615v1024h-615v-1024z" />
<glyph unicode="&#xd6;" horiz-adv-x="1843" d="M205 205v1024h205v205h1024v-205h204v-1024h-204v-205h-1024v205h-205zM410 1638v205h409v-205h-409zM614 205h615v1024h-615v-1024zM1024 1638v205h410v-205h-410z" />
<glyph unicode="&#xd7;" horiz-adv-x="1433" d="M205 205v205h205v204h-205v205h409v-205h205v205h410v-205h-205v-204h205v-205h-410v205h-205v-205h-409z" />
<glyph unicode="&#xd8;" horiz-adv-x="2048" d="M205 0v205h205v205h-205v614h205v205h204v205h1229v-205h-205v-205h205v-614h-205v-205h-204v-205h-1229zM614 614h205v205h205v205h205v205h-410v-205h-205v-410zM819 205h410v205h205v409h-205v-205h-205v-204h-205v-205z" />
<glyph unicode="&#xd9;" horiz-adv-x="1843" d="M205 205v1229h409v-1229h615v1229h409v-1229h-204v-205h-1024v205h-205zM614 1843v205h410v-205h205v-205h-410v205h-205z" />
<glyph unicode="&#xda;" horiz-adv-x="1843" d="M205 205v1229h409v-1229h615v1229h409v-1229h-204v-205h-1024v205h-205zM614 1638v205h205v205h410v-205h-205v-205h-410z" />
<glyph unicode="&#xdb;" horiz-adv-x="1843" d="M205 205v1229h409v-1229h615v1229h409v-1229h-204v-205h-1024v205h-205zM410 1638v205h204v205h615v-205h205v-205h-410v205h-205v-205h-409z" />
<glyph unicode="&#xdc;" horiz-adv-x="1843" d="M205 205v1229h409v-1229h615v1229h409v-1229h-204v-205h-1024v205h-205zM410 1638v205h409v-205h-409zM1024 1638v205h410v-205h-410z" />
<glyph unicode="&#xdd;" horiz-adv-x="2048" d="M205 1229v205h409v-205h205v-205h410v205h205v205h409v-205h-205v-205h-204v-205h-205v-819h-410v819h-205v205h-204v205h-205zM819 1638v205h410v-205h-410zM1024 1843v205h410v-205h-410z" />
<glyph unicode="&#xde;" horiz-adv-x="1843" d="M205 0v1843h409v-409h820v-205h204v-410h-204v-205h-820v-614h-409zM614 819h615v410h-615v-410z" />
<glyph unicode="&#xdf;" horiz-adv-x="1843" d="M205 -205v1639h205v204h1024v-204h204v-410h-204v-205h204v-614h-204v-205h-615v205h410v614h-410v205h410v410h-615v-1639h-409z" />
<glyph unicode="&#xe0;" d="M205 205v205h205v204h614v205h-614v205h819v-205h205v-819h-1024v205h-205zM614 205h410v205h-410v-205zM614 1434v204h410v-204h205v-205h-410v205h-205z" />
<glyph unicode="&#xe1;" d="M205 205v205h205v204h614v205h-614v205h819v-205h205v-819h-1024v205h-205zM614 205h410v205h-410v-205zM614 1229v205h205v204h410v-204h-205v-205h-410z" />
<glyph unicode="&#xe2;" d="M205 205v205h205v204h614v205h-614v205h819v-205h205v-819h-1024v205h-205zM410 1229v205h204v204h615v-204h205v-205h-410v205h-205v-205h-409zM614 205h410v205h-410v-205z" />
<glyph unicode="&#xe3;" d="M205 205v205h205v204h614v205h-614v205h819v-205h205v-819h-1024v205h-205zM410 1229v205h204v204h410v-204h205v204h409v-204h-204v-205h-410v205h-205v-205h-409zM614 205h410v205h-410v-205z" />
<glyph unicode="&#xe4;" d="M205 205v205h205v204h614v205h-614v205h819v-205h205v-819h-1024v205h-205zM205 1229v205h409v-205h-409zM614 205h410v205h-410v-205zM1024 1229v205h410v-205h-410z" />
<glyph unicode="&#xe5;" d="M205 205v205h205v204h614v205h-614v205h819v-205h205v-819h-1024v205h-205zM410 1434v204h204v205h615v-205h205v-204h-205v-205h-615v205h-204zM614 205h410v205h-410v-205zM819 1434h205v204h-205v-204z" />
<glyph unicode="&#xe6;" horiz-adv-x="2048" d="M205 205v205h205v204h409v205h-409v205h1228v-205h205v-205h-205v-204h-409v-205h614v-205h-1433v205h-205zM614 205h205v205h-205v-205zM1229 614h205v205h-205v-205z" />
<glyph unicode="&#xe7;" horiz-adv-x="1433" d="M205 205v614h205v205h819v-205h-615v-614h615v-205h-205v-205h-205v-205h-409v205h204v205h-204v205h-205z" />
<glyph unicode="&#xe8;" d="M205 205v614h205v205h819v-205h205v-409h-820v-205h820v-205h-1024v205h-205zM614 614h410v205h-410v-205zM614 1434v204h410v-204h205v-205h-410v205h-205z" />
<glyph unicode="&#xe9;" d="M205 205v614h205v205h819v-205h205v-409h-820v-205h820v-205h-1024v205h-205zM614 614h410v205h-410v-205zM614 1229v205h205v204h410v-204h-205v-205h-410z" />
<glyph unicode="&#xea;" d="M205 205v614h205v205h819v-205h205v-409h-820v-205h820v-205h-1024v205h-205zM410 1229v205h204v204h615v-204h205v-205h-410v205h-205v-205h-409zM614 614h410v205h-410v-205z" />
<glyph unicode="&#xeb;" d="M205 205v614h205v205h819v-205h205v-409h-820v-205h820v-205h-1024v205h-205zM205 1229v205h409v-205h-409zM614 614h410v205h-410v-205zM1024 1229v205h410v-205h-410z" />
<glyph unicode="&#xec;" horiz-adv-x="819" d="M0 1434v204h410v-204h204v-205h-409v205h-205zM205 0v1024h409v-1024h-409z" />
<glyph unicode="&#xed;" horiz-adv-x="819" d="M205 0v1024h409v-1024h-409zM205 1229v205h205v204h409v-204h-205v-205h-409z" />
<glyph unicode="&#xee;" horiz-adv-x="1228" d="M0 1229v205h205v204h819v-204h205v-205h-410v205h-409v-205h-410zM410 0v1024h409v-1024h-409z" />
<glyph unicode="&#xef;" horiz-adv-x="1228" d="M0 1229v205h410v-205h-410zM410 0v1024h409v-1024h-409zM819 1229v205h410v-205h-410z" />
<glyph unicode="&#xf0;" d="M205 410v409h205v205h614v205h-205v205h-409v204h204v205h205v-205h615v-204h-205v-205h205v-819h-205v-205h-819v205h-205zM614 410h410v409h-410v-409z" />
<glyph unicode="&#xf1;" d="M205 0v1024h1024v-205h205v-819h-410v819h-410v-819h-409zM205 1229v205h205v204h409v-204h205v204h410v-204h-205v-205h-410v205h-205v-205h-409z" />
<glyph unicode="&#xf2;" d="M205 205v614h205v205h819v-205h205v-614h-205v-205h-819v205h-205zM410 1434v204h409v-204h205v-205h-410v205h-204zM614 205h410v614h-410v-614z" />
<glyph unicode="&#xf3;" d="M205 205v614h205v205h819v-205h205v-614h-205v-205h-819v205h-205zM614 205h410v614h-410v-614zM614 1229v205h205v204h410v-204h-205v-205h-410z" />
<glyph unicode="&#xf4;" d="M205 205v614h205v205h819v-205h205v-614h-205v-205h-819v205h-205zM410 1229v205h204v204h615v-204h205v-205h-410v205h-205v-205h-409zM614 205h410v614h-410v-614z" />
<glyph unicode="&#xf5;" d="M205 205v614h205v205h819v-205h205v-614h-205v-205h-819v205h-205zM205 1229v205h205v204h409v-204h205v204h410v-204h-205v-205h-1024zM614 205h410v614h-410v-614zM614 1229h205v205h-205v-205z" />
<glyph unicode="&#xf6;" d="M205 205v614h205v205h819v-205h205v-614h-205v-205h-819v205h-205zM205 1229v205h409v-205h-409zM614 205h410v614h-410v-614zM1024 1229v205h410v-205h-410z" />
<glyph unicode="&#xf7;" horiz-adv-x="2048" d="M205 614v205h1638v-205h-1638zM819 0v410h410v-410h-410zM819 1024v410h410v-410h-410z" />
<glyph unicode="&#xf8;" horiz-adv-x="2048" d="M205 0h205v205h-205v614h205v205h1024v205h409v-205h-205v-205h205v-614h-205v-205h-1024v-205h-409v205zM614 410h205v204h205v205h-410v-409zM1024 205h410v409h-205v-204h-205v-205z" />
<glyph unicode="&#xf9;" d="M205 205v819h409v-819h410v819h410v-1024h-1024v205h-205zM410 1434v204h409v-204h205v-205h-410v205h-204z" />
<glyph unicode="&#xfa;" d="M205 205v819h409v-819h410v819h410v-1024h-1024v205h-205zM614 1229v205h205v204h410v-204h-205v-205h-410z" />
<glyph unicode="&#xfb;" d="M205 205v819h409v-819h410v819h410v-1024h-1024v205h-205zM205 1229v205h205v204h819v-204h205v-205h-410v205h-410v-205h-409z" />
<glyph unicode="&#xfc;" d="M205 205v819h409v-819h410v819h410v-1024h-1024v205h-205zM205 1229v205h409v-205h-409zM1024 1229v205h410v-205h-410z" />
<glyph unicode="&#xfd;" d="M205 205v819h409v-819h410v819h410v-1229h-205v-205h-819v205h614v205h-614v205h-205zM614 1229v205h205v204h410v-204h-205v-205h-410z" />
<glyph unicode="&#xfe;" d="M205 -410v1844h409v-410h615v-205h205v-614h-205v-205h-615v-410h-409zM614 205h410v614h-410v-614z" />
<glyph unicode="&#xff;" d="M205 205v819h409v-819h410v819h410v-1229h-205v-205h-819v205h614v205h-614v205h-205zM205 1229v205h409v-205h-409zM1024 1229v205h410v-205h-410z" />
<glyph unicode="&#x152;" horiz-adv-x="2252" d="M205 205v1024h205v205h1638v-205h-614v-410h614v-205h-614v-409h614v-205h-1638v205h-205zM614 205h410v1024h-410v-1024z" />
<glyph unicode="&#x153;" horiz-adv-x="2048" d="M205 205v614h205v205h1228v-205h205v-205h-205v-204h-409v-205h614v-205h-1433v205h-205zM614 205h205v614h-205v-614zM1229 614h205v205h-205v-205z" />
<glyph unicode="&#x178;" horiz-adv-x="2048" d="M205 1229v205h409v-205h205v-205h410v205h205v205h409v-205h-205v-205h-204v-205h-205v-819h-410v819h-205v205h-204v205h-205zM410 1638v205h409v-205h-409zM1229 1638v205h409v-205h-409z" />
<glyph unicode="&#x2c6;" horiz-adv-x="1433" d="M205 1229v205h205v204h614v-204h205v-205h-410v205h-205v-205h-409z" />
<glyph unicode="&#x2dc;" d="M205 1229v205h205v204h409v-204h205v204h410v-204h-205v-205h-410v205h-205v-205h-409z" />
<glyph unicode="&#x2013;" horiz-adv-x="1228" d="M205 410v204h819v-204h-819z" />
<glyph unicode="&#x2014;" horiz-adv-x="1843" d="M205 410v204h1433v-204h-1433z" />
<glyph unicode="&#x2018;" horiz-adv-x="1024" d="M205 1024v410h205v204h409v-204h-205v-410h-409z" />
<glyph unicode="&#x2019;" horiz-adv-x="1024" d="M205 1024v205h205v409h409v-409h-205v-205h-409z" />
<glyph unicode="&#x201a;" horiz-adv-x="1024" d="M205 0h205v410h409v-410h-205v-205h-409v205z" />
<glyph unicode="&#x201c;" d="M205 1024v410h409v-410h-409zM410 1434v204h409v-204h-409zM819 1024v410h410v-410h-410zM1024 1434v204h410v-204h-410z" />
<glyph unicode="&#x201d;" d="M205 1024v205h205v409h409v-409h205v409h410v-409h-205v-205h-410v205h-205v-205h-409z" />
<glyph unicode="&#x201e;" d="M205 0h205v410h409v-410h205v410h410v-410h-205v-205h-1024v205zM614 0v-205h205v205h-205z" />
<glyph unicode="&#x2022;" horiz-adv-x="1843" d="M205 614v410h205v205h204v205h615v-205h205v-205h204v-410h-204v-204h-205v-205h-615v205h-204v204h-205z" />
<glyph unicode="&#x2026;" horiz-adv-x="2048" d="M205 0v205h409v-205h-409zM819 0v205h410v-205h-410zM1434 0v205h409v-205h-409z" />
<glyph unicode="&#x2039;" horiz-adv-x="1228" d="M205 614v205h205v205h204v205h410v-205h-205v-205h-205v-205h205v-204h205v-205h-410v205h-204v204h-205z" />
<glyph unicode="&#x203a;" horiz-adv-x="1228" d="M205 205v205h205v204h204v205h-204v205h-205v205h409v-205h205v-205h205v-205h-205v-204h-205v-205h-409z" />
<glyph unicode="&#x2122;" horiz-adv-x="2662" d="M205 1434v204h819v-204h-205v-410h-409v410h-205zM1229 1024v614h1229v-614h-410v205h-410v-205h-409z" />
<glyph unicode="&#xe000;" horiz-adv-x="1025" d="M0 1025h1025v-1025h-1025v1025z" />
<glyph unicode="&#xfb01;" horiz-adv-x="2048" d="M205 819v205h205v205h204v205h615v-205h-410v-205h205v-205h-205v-819h-409v819h-205zM1434 0v1024h409v-1024h-409zM1434 1229v205h409v-205h-409z" />
<glyph unicode="&#xfb02;" horiz-adv-x="2048" d="M205 819v205h205v205h204v205h615v-205h-410v-205h205v-205h-205v-819h-409v819h-205zM1434 0v1434h409v-1434h-409z" />
<glyph unicode="&#xfb03;" horiz-adv-x="3276" d="M205 819v205h205v205h204v205h615v-205h-410v-205h205v-205h-205v-819h-409v819h-205zM1434 819v205h204v205h205v205h615v-205h-410v-205h205v-205h-205v-819h-410v819h-204zM2662 0v1024h410v-1024h-410zM2662 1229v205h410v-205h-410z" />
<glyph unicode="&#xfb04;" horiz-adv-x="3276" d="M205 819v205h205v205h204v205h615v-205h-410v-205h205v-205h-205v-819h-409v819h-205zM1434 819v205h204v205h205v205h615v-205h-410v-205h205v-205h-205v-819h-410v819h-204zM2662 0v1434h410v-1434h-410z" />
</font>
</defs>
</svg>
